<svg xmlns="http://www.w3.org/2000/svg" width="80.4mm" height="156.0mm" viewBox="-3.0 -3.0 80.4 156.0"><style>@import url('https://fonts.googleapis.com/css2?family=Inter:wght@500;800;900&amp;family=JetBrains+Mono:wght@500;700&amp;display=swap');</style><defs><linearGradient id="gh" x1="0" x2="1" y1="0" y2="0"><stop stop-color="#832388"/><stop offset=".5" stop-color="#E3436B"/><stop offset="1" stop-color="#F0772F"/></linearGradient><linearGradient id="gd" x1="0" x2="1" y1="0" y2="1"><stop stop-color="#832388"/><stop offset=".52" stop-color="#E3436B"/><stop offset="1" stop-color="#F0772F"/></linearGradient><linearGradient id="gu" gradientUnits="userSpaceOnUse" x1="0" y1="0" x2="74.4" y2="150.0"><stop stop-color="#832388"/><stop offset=".52" stop-color="#E3436B"/><stop offset="1" stop-color="#F0772F"/></linearGradient><filter id="blur" x="-60%" y="-60%" width="220%" height="220%"><feGaussianBlur stdDeviation="3.2"/></filter><radialGradient id="r1" cx=".1" cy=".05" r=".6"><stop stop-color="#E3436B" stop-opacity=".16"/><stop offset="1" stop-color="#E3436B" stop-opacity="0"/></radialGradient><radialGradient id="r2" cx=".9" cy=".95" r=".55"><stop stop-color="#F0772F" stop-opacity=".12"/><stop offset="1" stop-color="#F0772F" stop-opacity="0"/></radialGradient><radialGradient id="hole" cx=".5" cy=".5" r=".5"><stop stop-color="#080810" stop-opacity=".95"/><stop offset=".6" stop-color="#080810" stop-opacity=".7"/><stop offset="1" stop-color="#080810" stop-opacity="0"/></radialGradient></defs><g id="artwork"><rect x="-3.0" y="-3.0" width="80.4" height="156.0" fill="#080810" /><rect x="-3.0" y="-3.0" width="80.4" height="156.0" fill="url(#r1)" /><rect x="-3.0" y="-3.0" width="80.4" height="156.0" fill="url(#r2)" /><rect x="22.60" y="58.40" width="29.20" height="29.20" rx="7.73" fill="none" stroke="url(#gu)" stroke-width="0.18" opacity="0.72" /><rect x="19.00" y="54.80" width="36.40" height="36.40" rx="9.64" fill="none" stroke="url(#gu)" stroke-width="0.18" opacity="0.68" stroke-dasharray=".5 1.1"/><rect x="15.40" y="51.20" width="43.60" height="43.60" rx="11.54" fill="none" stroke="url(#gu)" stroke-width="0.18" opacity="0.65" /><rect x="11.80" y="47.60" width="50.80" height="50.80" rx="13.45" fill="none" stroke="url(#gu)" stroke-width="0.45" opacity="0.61" /><rect x="8.20" y="44.00" width="58.00" height="58.00" rx="15.35" fill="none" stroke="url(#gu)" stroke-width="0.18" opacity="0.58" /><rect x="4.60" y="40.40" width="65.20" height="65.20" rx="17.26" fill="none" stroke="url(#gu)" stroke-width="0.18" opacity="0.55" stroke-dasharray=".5 1.1"/><rect x="1.00" y="36.80" width="72.40" height="72.40" rx="19.16" fill="none" stroke="url(#gu)" stroke-width="0.18" opacity="0.51" /><rect x="-2.60" y="33.20" width="79.60" height="79.60" rx="21.07" fill="none" stroke="url(#gu)" stroke-width="0.45" opacity="0.48" /><rect x="-6.20" y="29.60" width="86.80" height="86.80" rx="22.98" fill="none" stroke="url(#gu)" stroke-width="0.18" opacity="0.44" /><rect x="-9.80" y="26.00" width="94.00" height="94.00" rx="24.88" fill="none" stroke="url(#gu)" stroke-width="0.18" opacity="0.41" stroke-dasharray=".5 1.1"/><rect x="-13.40" y="22.40" width="101.20" height="101.20" rx="26.79" fill="none" stroke="url(#gu)" stroke-width="0.18" opacity="0.38" /><rect x="-17.00" y="18.80" width="108.40" height="108.40" rx="28.69" fill="none" stroke="url(#gu)" stroke-width="0.45" opacity="0.34" /><rect x="-20.60" y="15.20" width="115.60" height="115.60" rx="30.60" fill="none" stroke="url(#gu)" stroke-width="0.18" opacity="0.31" /><rect x="-24.20" y="11.60" width="122.80" height="122.80" rx="32.51" fill="none" stroke="url(#gu)" stroke-width="0.18" opacity="0.27" stroke-dasharray=".5 1.1"/><rect x="-27.80" y="8.00" width="130.00" height="130.00" rx="34.41" fill="none" stroke="url(#gu)" stroke-width="0.18" opacity="0.24" /><rect x="-31.40" y="4.40" width="137.20" height="137.20" rx="36.32" fill="none" stroke="url(#gu)" stroke-width="0.45" opacity="0.21" /><rect x="-35.00" y="0.80" width="144.40" height="144.40" rx="38.22" fill="none" stroke="url(#gu)" stroke-width="0.18" opacity="0.17" /><rect x="-38.60" y="-2.80" width="151.60" height="151.60" rx="40.13" fill="none" stroke="url(#gu)" stroke-width="0.18" opacity="0.14" stroke-dasharray=".5 1.1"/><rect x="-42.20" y="-6.40" width="158.80" height="158.80" rx="42.04" fill="none" stroke="url(#gu)" stroke-width="0.18" opacity="0.10" /><rect x="-45.80" y="-10.00" width="166.00" height="166.00" rx="43.94" fill="none" stroke="url(#gu)" stroke-width="0.45" opacity="0.07" /><rect x="-49.40" y="-13.60" width="173.20" height="173.20" rx="45.85" fill="none" stroke="url(#gu)" stroke-width="0.18" opacity="0.05" /><rect x="26.200000000000003" y="62" width="22" height="22" rx="5.82" fill="url(#gh)" opacity=".45" filter="url(#blur)"/><rect x="26.200000000000003" y="62" width="22" height="22" rx="5.82" fill="url(#gh)"/><text x="37.2" y="75.75" text-anchor="middle" font-family="JetBrains Mono" font-weight="700" font-size="7.81" fill="#fff">LL</text><ellipse cx="37.2" cy="104" rx="36" ry="10" fill="url(#hole)"/><text x="37.2" y="103" text-anchor="middle" font-family="Inter" font-weight="800" font-size="8.6" letter-spacing="-.17" fill="#f0f0f8">Liquidity<tspan fill="url(#gd)">Lab</tspan></text><text x="37.2" y="110" text-anchor="middle" font-family="JetBrains Mono" font-weight="500" font-size="1.9" letter-spacing="0.4" fill="#9898b8">TRADE LIQUIDITY. NOT NOISE.</text><text x="37.2" y="142.0" text-anchor="middle" font-family="JetBrains Mono" font-weight="700" font-size="1.9" letter-spacing="0.6" fill="#9898b8">LIQUIDITYLAB.NET</text></g><g id="cut-line" fill="none" stroke="#FF00FF" stroke-width=".2" stroke-dasharray="1 .6"><path d="M 12.0 0 H 62.400000000000006 A 12.0 12.0 0 0 1 74.4 12.0 V 138.0 A 12.0 12.0 0 0 1 62.400000000000006 150.0 H 12.0 A 12.0 12.0 0 0 1 0 138.0 V 12.0 A 12.0 12.0 0 0 1 12.0 0 Z"/><rect x="4.2" y="4.2" width="39.0" height="39.0" rx="9.5"/></g><rect id="camera-knockout" x="4.2" y="4.2" width="39.0" height="39.0" rx="9.5" fill="#FF00FF" fill-opacity=".18"/></svg>